<?xml version="1.0" encoding="utf-8"?>
<!-- Generator: Adobe Illustrator 23.0.6, SVG Export Plug-In . SVG Version: 6.00 Build 0)  -->
<svg version="1.1" id="Layer_1" xmlns="http://www.w3.org/2000/svg" xmlns:xlink="http://www.w3.org/1999/xlink" x="0px" y="0px"
	 viewBox="0 0 549 132" enable-background="new 0 0 549 132" xml:space="preserve">
<g>
	<g>
		<path d="M65.7,81.8c-1.3,3-3.1,5.7-5.4,8c-2.4,2.4-5.3,4.3-8.6,5.6c-3.3,1.3-6.9,2-10.7,2s-7.7-0.7-11-2.1
			c-3.4-1.4-6.3-3.4-8.8-5.9c-2.2-2.3-3.9-4.9-5.1-7.9c-1.2-3-1.9-6.2-1.9-9.6V31.4H16v40.4c0,3.4,0.6,6.5,2,9.5
			c1.3,2.9,3.1,5.5,5.3,7.6c2.2,2.1,4.9,3.8,7.9,5.1c3,1.2,6.3,1.9,9.8,1.9s6.8-0.6,9.9-1.9c3.1-1.2,5.7-2.9,7.9-5.1
			c2.2-2.1,4-4.7,5.3-7.6c1.3-2.9,1.9-6.1,1.9-9.5V31.4h1.7v40.4C67.7,75.5,67,78.8,65.7,81.8L65.7,81.8z"/>
		<path d="M41,100c-4.3,0-8.4-0.8-12-2.3c-3.7-1.5-6.9-3.7-9.6-6.5c-2.4-2.5-4.3-5.5-5.7-8.7c-1.4-3.3-2.1-6.8-2.1-10.6v-43h6.9v43
			c0,3,0.6,5.8,1.7,8.4c1.2,2.6,2.8,4.9,4.7,6.8c2,1.9,4.4,3.4,7.1,4.5c5.4,2.2,12.2,2.2,17.7,0c2.7-1.1,5.1-2.6,7.1-4.5
			c2-1.9,3.5-4.2,4.7-6.8c1.1-2.6,1.7-5.4,1.7-8.4v-43h6.9v43c0,4-0.7,7.7-2.2,11c-1.4,3.3-3.4,6.3-5.9,8.8
			c-2.7,2.7-5.8,4.7-9.4,6.2C49.1,99.3,45.2,100.1,41,100L41,100z"/>
	</g>
	<g>
		<path d="M41,101.7c-4.5,0-8.8-0.8-12.7-2.5c-3.9-1.6-7.3-4-10.1-6.9c-2.6-2.7-4.6-5.8-6-9.2c-1.5-3.5-2.2-7.3-2.2-11.3V27.1h10.3
			v44.7c0,2.8,0.5,5.4,1.6,7.7c1.1,2.4,2.5,4.5,4.4,6.3c1.8,1.8,4,3.2,6.6,4.2c2.5,1,5.3,1.5,8.2,1.5c2.9,0,5.7-0.5,8.3-1.5
			s4.8-2.4,6.6-4.2c1.8-1.7,3.3-3.8,4.3-6.2c1-2.4,1.6-5,1.6-7.8V27.1H72v44.7c0,4.2-0.8,8.1-2.3,11.7l0,0c-1.5,3.5-3.6,6.6-6.3,9.3
			c-2.8,2.8-6.2,5-10,6.6C49.6,100.9,45.4,101.7,41,101.7L41,101.7z"/>
		<path d="M41,104.3c-4.9,0-9.5-0.9-13.7-2.7c-4.2-1.8-7.9-4.3-11-7.5c-2.8-3-5-6.3-6.5-10c-1.6-3.8-2.4-7.9-2.4-12.3V24.5h15.5
			v47.3c0,2.4,0.5,4.6,1.4,6.7c0.9,2.1,2.2,3.9,3.8,5.4c1.6,1.5,3.5,2.8,5.7,3.7c4.4,1.8,10,1.8,14.5,0c2.2-0.9,4.2-2.1,5.8-3.7
			c1.6-1.5,2.8-3.3,3.7-5.4c0.9-2,1.3-4.3,1.3-6.7V24.5h15.5v47.3c0,4.6-0.8,8.8-2.5,12.7c-1.6,3.8-3.9,7.2-6.9,10.1
			c-3.1,3.1-6.7,5.5-10.9,7.1C50.2,103.5,45.7,104.3,41,104.3L41,104.3z M12.6,29.8v42.1c0,3.7,0.7,7.1,2,10.3
			c1.3,3.1,3.2,6,5.5,8.4c2.6,2.7,5.7,4.8,9.3,6.3c7,3,16,3,23,0.1c3.5-1.4,6.6-3.4,9.1-6c2.4-2.4,4.4-5.3,5.7-8.5
			c1.4-3.2,2.1-6.8,2.1-10.6V29.8h-5.1v42.1c0,3.1-0.6,6.1-1.8,8.8c-1.2,2.7-2.8,5.1-4.9,7.1c-2.1,2-4.6,3.6-7.4,4.7
			c-5.7,2.3-12.8,2.3-18.4,0c-2.8-1.2-5.3-2.8-7.4-4.7c-2.1-2-3.7-4.4-4.9-7.1c-1.2-2.7-1.8-5.7-1.8-8.8V29.7L12.6,29.8L12.6,29.8z"
			/>
	</g>
</g>
<g>
	<g>
		<path d="M155.3,96.7l-54.8-63v63h-1.7V31.4h1.9l54.8,63v-63h1.7v65.3H155.3z"/>
		<polygon points="158.1,101.4 156.3,99.3 154.1,99.3 103.2,40.7 103.2,99.3 96.2,99.3 96.2,28.8 98,28.8 98,26.7 99.8,28.8 
			101.9,28.8 152.9,87.4 152.9,28.8 159.8,28.8 159.8,99.3 158.1,99.3 		"/>
	</g>
	<g>
		<polygon points="155.5,101 153.4,101 104.8,45.1 104.8,101 94.6,101 94.6,27.1 96.3,27.1 100.5,27.1 102.7,27.1 151.2,83 
			151.2,27.1 161.5,27.1 161.5,101 159.8,101 		"/>
		<path d="M164.1,103.6h-11.9l-44.7-51.5v51.5H92V24.5h11.9L148.6,76V24.5h15.5L164.1,103.6L164.1,103.6z M154.6,98.4h4.3V29.8h-5.1
			V90l-52.3-60.2h-4.3v68.6h5.1V38.2L154.6,98.4L154.6,98.4z"/>
	</g>
</g>
<g>
	<g>
		<path d="M232.9,34.6c-3.8-1.4-7.9-2-12.1-2c-4.7,0-9,0.8-13.1,2.4c-4,1.6-7.6,3.9-10.6,6.7c-3,2.8-5.4,6.2-7.1,10
			c-1.7,3.8-2.6,8-2.6,12.4s0.9,8.6,2.6,12.5c1.7,3.9,4.1,7.2,7.1,10s6.5,5.1,10.5,6.7c4,1.6,8.4,2.4,13,2.4s8.8-0.8,12.7-2.3
			c4-1.5,7.5-3.6,10.6-6.3l0.2,1.8c-3.1,2.7-6.7,4.7-10.7,6.2c-4,1.5-8.3,2.2-12.8,2.2c-4.9,0-9.5-0.8-13.7-2.5
			c-4.3-1.7-7.9-4-11.1-7c-3.1-3-5.6-6.5-7.3-10.6c-1.8-4.1-2.7-8.5-2.7-13.2c0-4.7,0.9-9.1,2.7-13.1c1.8-4,4.2-7.6,7.4-10.6
			c3.1-3,6.8-5.4,11.1-7.1s8.8-2.6,13.7-2.6c4.4,0,8.4,0.7,12.3,2c3.8,1.4,7.3,3.3,10.4,5.7l-0.2,1.9
			C240.1,37.8,236.8,35.9,232.9,34.6L232.9,34.6z"/>
		<path d="M220.6,100c-5.2,0-10.1-0.9-14.7-2.7c-4.6-1.8-8.6-4.4-11.9-7.6c-3.4-3.2-6-7.1-7.9-11.4c-1.9-4.4-2.9-9.2-2.9-14.2
			c0-5.1,1-9.8,2.9-14.2c1.9-4.4,4.6-8.2,8-11.4c3.4-3.2,7.4-5.8,11.9-7.6c8.5-3.5,19.1-3.7,27.8-0.6c4.1,1.4,7.8,3.5,11.1,6.1
			l1.1,0.9l-0.8,8.3l-3.8-3.2c-2.7-2.3-5.9-4-9.4-5.3l0,0c-7.3-2.6-16.2-2.5-23.3,0.4c-3.7,1.5-7,3.6-9.7,6.2
			c-2.7,2.6-4.9,5.7-6.5,9.2c-1.6,3.5-2.4,7.3-2.4,11.4s0.8,7.9,2.4,11.4c1.6,3.5,3.8,6.6,6.5,9.2c2.7,2.6,6,4.7,9.7,6.2
			c7.3,2.9,16.5,3,23.8,0.2c3.6-1.4,6.9-3.4,9.8-5.9l3.8-3.4l0.8,8.3l-1,0.9c-3.4,2.8-7.2,5.1-11.5,6.7
			C230.1,99.2,225.4,100,220.6,100L220.6,100z"/>
	</g>
	<g>
		<path d="M220.6,101.7c-5.4,0-10.6-1-15.3-2.8c-4.8-1.9-8.9-4.6-12.4-7.9c-3.5-3.4-6.3-7.4-8.3-12c-2-4.6-3-9.6-3-14.9
			s1-10.3,3-14.9c2-4.5,4.8-8.6,8.4-11.9c3.5-3.3,7.7-6,12.4-7.9c4.7-1.9,9.9-2.9,15.3-2.9c4.8,0,9.4,0.8,13.7,2.3
			c4.3,1.5,8.2,3.6,11.6,6.3l1.8,1.4l-1.2,12.3l-6.2-5.2c-2.6-2.1-5.5-3.8-8.8-5l0,0c-3.3-1.2-6.9-1.8-10.7-1.8
			c-4.1,0-7.9,0.7-11.5,2.1c-3.5,1.4-6.6,3.4-9.2,5.8c-2.6,2.4-4.6,5.3-6.1,8.6c-1.5,3.3-2.2,6.9-2.2,10.7s0.7,7.5,2.2,10.8
			c1.5,3.3,3.5,6.3,6.1,8.7c2.6,2.5,5.7,4.4,9.2,5.8c3.5,1.4,7.3,2.1,11.4,2.1s7.8-0.7,11.2-2c3.5-1.3,6.6-3.2,9.3-5.6l6.3-5.5
			l1.2,12.4l-1.7,1.5c-3.5,3-7.6,5.3-12,7C230.5,100.9,225.6,101.7,220.6,101.7L220.6,101.7z"/>
		<path d="M220.6,104.3c-5.8,0-11.2-1-16.3-3c-5.1-2-9.5-4.9-13.3-8.5c-3.8-3.6-6.7-7.9-8.9-12.8c-2.2-4.9-3.3-10.3-3.3-15.9
			c0-5.6,1.1-11,3.3-15.9c2.1-4.9,5.2-9.2,8.9-12.8c3.8-3.6,8.2-6.4,13.2-8.5c9.5-3.9,21.2-4.1,30.9-0.7c4.5,1.6,8.7,3.9,12.3,6.7
			l3,2.3L248.7,54l-10-8.4c-2.3-1.9-5-3.5-8-4.6c-6.3-2.3-14.1-2.2-20.3,0.3c-3.2,1.3-6,3.1-8.4,5.3c-2.3,2.2-4.2,4.8-5.5,7.8
			c-1.3,2.9-2,6.2-2,9.6c0,3.5,0.7,6.7,2,9.7c1.3,3,3.2,5.7,5.5,7.9c2.4,2.2,5.2,4,8.4,5.3c6.3,2.5,14.4,2.6,20.7,0.1
			c3.2-1.2,6-2.9,8.5-5.1l10.1-8.9l1.9,18.8l-2.8,2.3c-3.8,3.2-8.1,5.7-12.8,7.4C231.1,103.4,225.9,104.3,220.6,104.3L220.6,104.3z
			 M220.6,29c-5.1,0-9.9,0.9-14.3,2.7c-4.4,1.8-8.3,4.3-11.6,7.4c-3.3,3.1-5.9,6.9-7.8,11.1c-1.9,4.2-2.8,8.9-2.8,13.8
			c0,4.9,0.9,9.6,2.8,13.9c1.9,4.3,4.5,8,7.7,11.1c3.3,3.1,7.2,5.6,11.6,7.4c8.5,3.4,19.1,3.5,27.8,0.3c4.2-1.5,8-3.7,11.3-6.5
			l0.7-0.6l-0.6-5.9l-2.4,2.2c-2.9,2.6-6.3,4.6-10,6c-7.6,2.9-17,2.9-24.5-0.2c-3.8-1.5-7.2-3.7-10-6.4c-2.8-2.7-5.1-5.9-6.7-9.5
			c-1.6-3.6-2.4-7.6-2.4-11.8c0-4.2,0.8-8.2,2.4-11.8c1.6-3.6,3.9-6.8,6.7-9.5c2.8-2.7,6.2-4.8,10-6.4c7.4-3,16.5-3.1,24-0.4
			c3.6,1.3,6.8,3.1,9.6,5.5l2.4,2l0.6-6l-0.7-0.6c-3.2-2.5-6.9-4.5-10.9-5.9C229.4,29.7,225.1,29,220.6,29L220.6,29z"/>
	</g>
</g>
<g>
	<g>
		<path d="M337,64.1c0,4.7-0.9,9-2.6,13.1c-1.8,4.1-4.2,7.6-7.3,10.6c-3.1,3-6.8,5.4-11,7.1c-4.3,1.7-8.9,2.6-13.8,2.6
			c-5,0-9.6-0.9-13.8-2.6c-4.3-1.7-7.9-4.1-11-7.1c-3.1-3-5.6-6.5-7.3-10.6c-1.8-4.1-2.7-8.4-2.7-13.1s0.9-9.1,2.7-13.1
			c1.8-4,4.3-7.6,7.4-10.6c3.1-3,6.8-5.4,11-7.1s8.8-2.6,13.7-2.6s9.5,0.9,13.7,2.6c4.3,1.7,7.9,4.1,11,7.1c3.1,3,5.6,6.5,7.3,10.6
			C336.1,55,337,59.3,337,64.1L337,64.1z M335.3,64.1c0-4.5-0.9-8.6-2.5-12.5c-1.7-3.9-4-7.2-7-10.1s-6.5-5.1-10.5-6.8
			c-4-1.6-8.4-2.4-13-2.4c-4.7,0-9,0.8-13,2.4c-4,1.6-7.5,3.9-10.5,6.8c-3,2.9-5.3,6.2-7,10.1c-1.7,3.9-2.5,8-2.5,12.5
			s0.8,8.6,2.5,12.5c1.7,3.9,4,7.2,7,10.1s6.5,5.1,10.5,6.7c4,1.6,8.4,2.4,13,2.4s9-0.8,13-2.4c4-1.6,7.5-3.9,10.5-6.7
			c3-2.8,5.3-6.2,7-10.1C334.4,72.7,335.3,68.5,335.3,64.1z"/>
		<path d="M302.2,100c-5.3,0-10.2-0.9-14.8-2.8c-4.5-1.8-8.5-4.4-11.9-7.6c-3.3-3.2-6-7.1-7.9-11.4c-1.9-4.4-2.9-9.1-2.9-14.1
			s1-9.8,2.9-14.2c1.9-4.3,4.6-8.2,8-11.4c3.4-3.2,7.4-5.8,11.9-7.6c9-3.7,20.3-3.7,29.4,0c4.5,1.8,8.5,4.4,11.9,7.6
			c3.3,3.2,6,7,7.9,11.4c1.9,4.4,2.9,9.1,2.9,14.2c0,5-1,9.7-2.8,14.1c-1.9,4.4-4.5,8.2-7.9,11.5c-3.3,3.2-7.3,5.8-11.9,7.6
			C312.5,99.1,307.5,100,302.2,100L302.2,100z M302.2,34.9c-4.3,0-8.4,0.8-12,2.3c-3.7,1.5-7,3.6-9.7,6.2c-2.7,2.6-4.9,5.7-6.4,9.3
			c-1.5,3.5-2.3,7.4-2.3,11.5s0.8,7.9,2.3,11.5c1.5,3.5,3.7,6.6,6.4,9.2c2.7,2.6,6,4.7,9.7,6.2c7.4,3,16.7,3,24.1,0
			c3.7-1.5,6.9-3.6,9.7-6.2c2.7-2.6,4.9-5.7,6.4-9.2c1.5-3.5,2.3-7.4,2.3-11.5s-0.8-7.9-2.3-11.5c-1.6-3.5-3.7-6.7-6.4-9.3
			c-2.7-2.6-6-4.7-9.6-6.2C310.6,35.6,306.5,34.9,302.2,34.9z"/>
	</g>
	<g>
		<path d="M302.2,101.7c-5.5,0-10.7-1-15.4-2.9c-4.7-1.9-8.9-4.6-12.4-8c-3.5-3.4-6.3-7.4-8.3-12c-2-4.6-3-9.6-3-14.8
			c0-5.2,1-10.3,3.1-14.9c2-4.5,4.9-8.5,8.4-11.9c3.5-3.4,7.7-6,12.4-7.9c4.7-1.9,9.9-2.9,15.3-2.9c5.4,0,10.6,1,15.3,2.9
			c4.7,1.9,8.9,4.6,12.4,8c3.5,3.4,6.3,7.4,8.3,11.9c2,4.6,3,9.6,3,14.9s-1,10.2-3,14.8c-2,4.6-4.7,8.6-8.3,12
			c-3.5,3.4-7.7,6-12.4,8C312.9,100.7,307.7,101.7,302.2,101.7L302.2,101.7z M302.2,36.5c-4.1,0-7.9,0.7-11.4,2.1
			c-3.5,1.4-6.6,3.4-9.2,5.9c-2.6,2.5-4.6,5.4-6.1,8.7c-1.4,3.3-2.2,6.9-2.2,10.8c0,3.9,0.7,7.5,2.2,10.8c1.5,3.3,3.5,6.2,6.1,8.7
			c2.6,2.5,5.7,4.4,9.2,5.9c3.5,1.4,7.3,2.1,11.4,2.1c4.1,0,7.9-0.7,11.4-2.1c3.5-1.4,6.6-3.4,9.1-5.8c2.5-2.4,4.6-5.4,6-8.7
			c1.4-3.3,2.2-6.9,2.2-10.8c0-3.9-0.7-7.5-2.2-10.8c-1.5-3.3-3.5-6.3-6-8.8c-2.6-2.5-5.6-4.4-9.1-5.9S306.3,36.5,302.2,36.5
			L302.2,36.5z"/>
		<path d="M302.2,104.3c-5.8,0-11.3-1-16.4-3.1c-5.1-2-9.5-4.9-13.2-8.5c-3.8-3.6-6.7-7.9-8.9-12.8c-2.2-4.9-3.3-10.3-3.3-15.9
			c0-5.6,1.1-11,3.3-16c2.2-4.9,5.2-9.1,9-12.7c3.8-3.6,8.2-6.4,13.2-8.5c10.1-4.1,22.5-4.1,32.6,0c5.1,2,9.5,4.9,13.2,8.5
			c3.7,3.6,6.7,7.9,8.9,12.8c2.2,4.9,3.3,10.3,3.3,15.9s-1.1,10.9-3.2,15.8c-2.1,4.9-5.1,9.2-8.8,12.9c-3.7,3.6-8.2,6.4-13.2,8.5
			C313.6,103.3,308.1,104.3,302.2,104.3L302.2,104.3z M302.2,29c-5.1,0-9.9,0.9-14.3,2.7c-4.4,1.8-8.3,4.3-11.6,7.4
			c-3.3,3.1-5.9,6.9-7.8,11.1c-1.9,4.2-2.9,8.9-2.9,13.8c0,4.9,0.9,9.5,2.8,13.8c1.9,4.3,4.5,8,7.7,11.1c3.3,3.1,7.1,5.6,11.6,7.4
			c8.9,3.6,20,3.6,28.9,0c4.4-1.8,8.3-4.3,11.6-7.4c3.3-3.1,5.8-6.9,7.7-11.1c1.8-4.3,2.8-8.9,2.8-13.8c0-4.9-0.9-9.6-2.8-13.8
			c-1.9-4.2-4.5-8-7.7-11.1c-3.3-3.1-7.1-5.6-11.6-7.4C312.1,29.9,307.3,29,302.2,29L302.2,29z M302.2,94.1c-4.4,0-8.6-0.8-12.4-2.3
			c-3.8-1.5-7.2-3.7-10-6.4c-2.8-2.7-5.1-5.9-6.7-9.5c-1.6-3.6-2.4-7.6-2.4-11.8c0-4.2,0.8-8.2,2.4-11.8c1.6-3.6,3.8-6.9,6.7-9.6
			c2.8-2.7,6.2-4.9,10-6.4c7.6-3.1,17.2-3.1,24.8,0c3.8,1.5,7.1,3.7,10,6.4c2.8,2.7,5,5.9,6.6,9.6c1.6,3.6,2.4,7.6,2.4,11.8
			c0,4.2-0.8,8.2-2.4,11.8c-1.6,3.6-3.8,6.9-6.6,9.5c-2.8,2.7-6.1,4.8-10,6.4S306.7,94.1,302.2,94.1L302.2,94.1z M302.2,39.1
			c-3.8,0-7.3,0.7-10.4,1.9c-3.2,1.3-6,3.1-8.4,5.3c-2.3,2.2-4.2,4.9-5.5,7.9c-1.3,3-2,6.3-2,9.7c0,3.5,0.7,6.8,2,9.7
			c1.3,3,3.1,5.6,5.5,7.8c2.4,2.2,5.2,4,8.4,5.3c6.4,2.6,14.5,2.6,20.9,0c3.2-1.3,6-3.1,8.3-5.3c2.3-2.2,4.1-4.8,5.4-7.9
			c1.3-3,2-6.3,2-9.7c0-3.5-0.7-6.8-2-9.7c-1.3-3-3.2-5.7-5.5-7.9c-2.3-2.2-5.1-4-8.3-5.3S306,39.1,302.2,39.1L302.2,39.1z"/>
	</g>
</g>
<g>
	<g>
		<path d="M382.9,96.7h-2.1l-26.2-65.3h1.9l25.4,63.1l25.4-63.1h1.9L382.9,96.7L382.9,96.7z"/>
		<polygon points="381.9,101.5 380.8,99.3 379,99.3 350.7,28.8 358.3,28.8 381.9,87.5 405.5,28.8 413,28.8 384.6,99.3 382.8,99.3 		
			"/>
	</g>
	<g>
		<polygon points="379.9,101 377.9,101 348.3,27.1 359.4,27.1 381.9,83.1 404.4,27.1 415.5,27.1 385.8,101 383.9,101 		"/>
		<path d="M387.5,103.6h-11.4l-31.7-79.1h16.8L381.9,76l20.7-51.5h16.8L387.5,103.6z M379.7,98.4h4.3l27.6-68.6h-5.5l-24.3,60.3
			l-24.3-60.3h-5.5L379.7,98.4L379.7,98.4z"/>
	</g>
</g>
<g>
	<g>
		<path d="M432.9,96.7V31.4h33.3v1.4h-31.6v30.6h31v1.4h-31v30.5H467v1.4H432.9L432.9,96.7z"/>
		<polygon points="469.6,99.3 430.3,99.3 430.3,28.8 468.8,28.8 468.8,35.4 437.3,35.4 437.3,60.8 468.3,60.8 468.3,67.4 
			437.3,67.4 437.3,92.7 469.6,92.7 		"/>
	</g>
	<g>
		<polygon points="471.3,101 428.6,101 428.6,27.1 470.5,27.1 470.5,37.1 438.9,37.1 438.9,59.1 469.9,59.1 469.9,69.1 438.9,69.1 
			438.9,91.1 471.3,91.1 		"/>
		<path d="M473.9,103.6H426V24.5h47.1v15.1h-31.6v16.9h31v15.1h-31v16.8h32.4L473.9,103.6L473.9,103.6z M431.3,98.4h37.4v-4.7h-32.4
			V66.5h31v-4.7h-31V34.5h31.6v-4.7h-36.6L431.3,98.4L431.3,98.4z"/>
	</g>
</g>
<g>
	<g>
		<path d="M534.2,96.7c-0.1-4.4-1-8.6-2.7-12.5c-1.8-3.9-4.1-7.3-7.1-10.1c-3-2.9-6.5-5.1-10.5-6.8s-8.3-2.5-12.9-2.5h-4.6v31.9
			h-1.7V31.4h14.7c3,0,5.8,0.4,8.4,1.3c2.6,0.8,4.8,2,6.7,3.5c1.9,1.5,3.4,3.3,4.5,5.3c1.1,2,1.6,4.2,1.6,6.5c0,2.4-0.5,4.5-1.6,6.5
			c-1.1,2-2.5,3.7-4.3,5.2c-1.8,1.5-4,2.6-6.6,3.5c-2.5,0.8-5.2,1.3-8.1,1.4c3.7,0.8,7.1,2.3,10.3,4.3c3.2,2,6,4.4,8.3,7.2
			c2.3,2.8,4.2,6,5.5,9.5c1.4,3.5,2,7.2,2,11.1H534.2L534.2,96.7z M528.9,48.1c0-2.1-0.5-4.1-1.5-5.9c-1-1.8-2.4-3.5-4.2-4.8
			c-1.8-1.4-3.9-2.5-6.3-3.3c-2.4-0.8-5.1-1.2-7.9-1.2h-12.5v30.6h12.5c2.8,0,5.5-0.4,7.9-1.2c2.4-0.8,4.5-1.9,6.3-3.3
			c1.8-1.4,3.2-3,4.2-4.9C528.4,52.2,528.9,50.2,528.9,48.1L528.9,48.1z"/>
		<path d="M538.8,99.3h-7.1l0-2.6c-0.1-4-0.9-7.9-2.5-11.4c-1.6-3.6-3.8-6.7-6.5-9.3c-2.7-2.6-6-4.7-9.7-6.3
			c-3.6-1.5-7.7-2.3-11.9-2.3h-2v31.9h-6.9V63.2l-3.3-0.8l3.3-0.1V28.8h17.4c3.3,0,6.4,0.5,9.2,1.4c2.8,0.9,5.4,2.3,7.5,4
			c2.2,1.7,3.9,3.8,5.1,6.1c1.3,2.4,1.9,5,1.9,7.8c0,2.8-0.6,5.4-1.9,7.7c-1.2,2.3-2.9,4.3-5,6c-1.9,1.5-4.1,2.8-6.6,3.7
			c0.7,0.4,1.4,0.8,2,1.2c3.4,2.1,6.4,4.8,8.9,7.8c2.5,3,4.5,6.5,6,10.3c1.5,3.8,2.2,7.9,2.2,12L538.8,99.3L538.8,99.3z M499,60.8
			h9.9c2.6,0,4.9-0.4,7.1-1.1c2.1-0.7,4-1.7,5.6-2.9c1.5-1.1,2.7-2.5,3.5-4c0.8-1.5,1.2-3,1.2-4.7c0-1.7-0.4-3.2-1.2-4.7
			c-0.8-1.5-2-2.9-3.5-4c-1.5-1.2-3.4-2.2-5.6-2.9c-2.1-0.7-4.5-1.1-7.1-1.1H499L499,60.8L499,60.8z"/>
	</g>
	<g>
		<path d="M540.4,101H530l-0.1-4.2c-0.1-3.8-0.8-7.4-2.3-10.8c-1.5-3.4-3.6-6.3-6.2-8.8c-2.6-2.5-5.7-4.5-9.2-5.9
			c-3.5-1.4-7.2-2.2-11.3-2.2h-0.4V101h-10.3V27.1h19c3.5,0,6.7,0.5,9.7,1.5c3,1,5.7,2.4,8,4.3c2.3,1.9,4.2,4.1,5.6,6.6
			c1.4,2.6,2.1,5.5,2.1,8.6c0,3.1-0.7,5.9-2.1,8.5c-1.3,2.5-3.2,4.7-5.4,6.5c-1.2,1-2.6,1.9-4,2.6c3.3,2.1,6.2,4.7,8.6,7.6
			c2.6,3.2,4.7,6.8,6.2,10.7c1.5,4,2.3,8.3,2.3,12.6L540.4,101L540.4,101z M500.7,59.1h8.3c2.4,0,4.6-0.3,6.5-1
			c2-0.7,3.7-1.5,5.1-2.6c1.3-1,2.3-2.2,3-3.5c0.7-1.3,1-2.5,1-3.9c0-1.4-0.3-2.7-1-3.9c-0.7-1.3-1.7-2.5-3-3.5
			c-1.4-1.1-3.1-2-5.1-2.6c-2-0.7-4.2-1-6.5-1h-8.3L500.7,59.1L500.7,59.1z"/>
		<path d="M543,103.6h-15.6l-0.1-6.8c0-3.4-0.8-6.7-2.1-9.7c-1.4-3.1-3.3-5.8-5.6-8c-2.4-2.3-5.2-4.1-8.4-5.4c-2.5-1-5.2-1.7-8-1.9
			v31.8h-15.5V24.5h21.6c3.7,0,7.3,0.5,10.5,1.6c3.3,1.1,6.3,2.7,8.8,4.7c2.6,2.1,4.7,4.6,6.2,7.4c1.6,3,2.5,6.3,2.5,9.8
			s-0.8,6.8-2.4,9.8c-1.5,2.8-3.5,5.3-6.1,7.4c-0.3,0.3-0.6,0.5-1,0.8c2.2,1.7,4.2,3.7,5.9,5.8c2.8,3.4,5,7.2,6.7,11.4
			c1.7,4.3,2.5,8.9,2.5,13.6L543,103.6L543,103.6z M532.6,98.4h5.2v-1.7c0-4.1-0.7-8-2.1-11.7c-1.4-3.7-3.4-7-5.8-10
			c-2.3-2.7-5-5.1-8-7.1l-3.8-2.5l4-2c1.3-0.7,2.5-1.5,3.6-2.3c2-1.6,3.6-3.5,4.8-5.7c1.2-2.2,1.8-4.7,1.8-7.3
			c0-2.6-0.6-5.1-1.8-7.3c-1.2-2.2-2.8-4.1-4.9-5.8c-2-1.6-4.5-2.9-7.2-3.8c-2.7-0.9-5.7-1.4-8.9-1.4H493v68.6h5.1V66.5h2.6
			c4.7,0,8.9,0.8,12.6,2.4c3.8,1.6,7.1,3.8,10,6.5s5.1,6,6.8,9.6c1.6,3.7,2.5,7.6,2.6,11.8L532.6,98.4L532.6,98.4z M508.9,61.8
			h-10.9V34.5h10.9c2.6,0,5.1,0.4,7.4,1.1c2.2,0.8,4.2,1.8,5.8,3c1.6,1.3,2.8,2.7,3.7,4.3c0.9,1.6,1.3,3.3,1.3,5.1
			c0,1.8-0.4,3.5-1.3,5.2c-0.9,1.7-2.1,3.1-3.7,4.4c-1.6,1.3-3.6,2.3-5.8,3C514.1,61.4,511.6,61.8,508.9,61.8L508.9,61.8z
			 M503.3,56.5h5.7c2.1,0,4-0.3,5.7-0.9c1.7-0.6,3.1-1.3,4.3-2.2c1-0.8,1.8-1.7,2.3-2.7c0.5-0.9,0.7-1.7,0.7-2.7
			c0-1-0.2-1.8-0.7-2.6c-0.5-1-1.3-1.9-2.4-2.7c-1.2-0.9-2.6-1.6-4.3-2.2c-1.7-0.6-3.6-0.9-5.7-0.9h-5.7
			C503.3,39.7,503.3,56.5,503.3,56.5z"/>
	</g>
</g>
</svg>
